<?xml version="1.0" encoding="UTF-8" standalone="no"?>
<svg
   xmlns:osb="http://www.openswatchbook.org/uri/2009/osb"
   xmlns:dc="http://purl.org/dc/elements/1.1/"
   xmlns:cc="http://creativecommons.org/ns#"
   xmlns:rdf="http://www.w3.org/1999/02/22-rdf-syntax-ns#"
   xmlns:svg="http://www.w3.org/2000/svg"
   xmlns="http://www.w3.org/2000/svg"
   xmlns:sodipodi="http://sodipodi.sourceforge.net/DTD/sodipodi-0.dtd"
   xmlns:inkscape="http://www.inkscape.org/namespaces/inkscape"
   width="512"
   height="512"
   viewBox="0 0 135.46666 135.46667"
   version="1.1"
   id="svg8"
   inkscape:version="1.0 (4035a4fb49, 2020-05-01)"
   sodipodi:docname="VOAL_Icon.svg">
  <defs
     id="defs2">
    <inkscape:perspective
       id="perspective1471"
       inkscape:persp3d-origin="67.73333 : 45.155557 : 1"
       inkscape:vp_z="135.46666 : 67.733335 : 1"
       inkscape:vp_y="0 : 1000 : 0"
       inkscape:vp_x="0 : 67.733335 : 1"
       sodipodi:type="inkscape:persp3d" />
    <linearGradient
       id="linearGradient2811"
       osb:paint="solid">
      <stop
         style="stop-color:#ffc900;stop-opacity:1;"
         offset="0"
         id="stop2809" />
    </linearGradient>
  </defs>
  <sodipodi:namedview
     inkscape:snap-to-guides="true"
     inkscape:snap-grids="true"
     id="base"
     pagecolor="#ffffff"
     bordercolor="#666666"
     borderopacity="1.0"
     inkscape:pageopacity="0.0"
     inkscape:pageshadow="2"
     inkscape:zoom="2.3223339"
     inkscape:cx="202.80116"
     inkscape:cy="226.75035"
     inkscape:document-units="mm"
     inkscape:current-layer="layer1"
     inkscape:document-rotation="0"
     showgrid="false"
     units="px"
     inkscape:window-width="1920"
     inkscape:window-height="1017"
     inkscape:window-x="-8"
     inkscape:window-y="-8"
     inkscape:window-maximized="1" />
  <metadata
     id="metadata5">
    <rdf:RDF>
      <cc:Work
         rdf:about="">
        <dc:format>image/svg+xml</dc:format>
        <dc:type
           rdf:resource="http://purl.org/dc/dcmitype/StillImage" />
        <dc:title />
      </cc:Work>
    </rdf:RDF>
  </metadata>
  <g
     inkscape:label="Layer 1"
     inkscape:groupmode="layer"
     id="layer1">
    <g
       id="g847"
       transform="matrix(1.1493388,0,0,1.1524067,189.0214,143.42412)">
      <path
         style="fill:#d0d0d0;fill-opacity:1;stroke-width:0.230837"
         d="m -135.21513,-55.82938 c 0.0111,-0.268914 0.0658,-0.32361 0.13946,-0.139465 0.0667,0.166635 0.0585,0.365734 -0.0182,0.442439 -0.0767,0.07671 -0.13126,-0.05964 -0.12124,-0.302974 z m 9.4911,-2.058298 c 0.005,-0.380882 0.0564,-0.508751 0.11497,-0.284154 0.0585,0.224598 0.0547,0.536228 -0.009,0.692511 -0.0632,0.156284 -0.11112,-0.02748 -0.10641,-0.408357 z m 11.74592,0.211601 c 0.0111,-0.268914 0.0658,-0.32361 0.13946,-0.139465 0.0667,0.166635 0.0585,0.365734 -0.0182,0.442439 -0.0767,0.0767 -0.13127,-0.05964 -0.12124,-0.302974 z m 2.69411,-7.866687 c 0.1587,-0.06404 0.41839,-0.06404 0.57709,0 0.1587,0.06404 0.0288,0.116432 -0.28855,0.116432 -0.3174,0 -0.44724,-0.0524 -0.28854,-0.116432 z m -45.90833,-15.024662 c -0.28713,-0.366122 -0.27896,-0.374286 0.0872,-0.08715 0.22218,0.174247 0.40396,0.356032 0.40396,0.403965 0,0.189988 -0.18956,0.06771 -0.49112,-0.31681 z m -0.20139,-28.537834 c 0,-0.0479 0.18179,-0.22972 0.40397,-0.40396 0.36612,-0.28713 0.37428,-0.27897 0.0871,0.0871 -0.30156,0.38452 -0.49112,0.5068 -0.49112,0.31681 z m 103.385589,-0.31681 c -0.287131,-0.36612 -0.278967,-0.37428 0.08715,-0.0871 0.384517,0.30156 0.506798,0.49112 0.31681,0.49112 -0.04793,0 -0.229717,-0.18179 -0.403965,-0.40397 z M -111.284,-124.40623 c 0.1587,-0.064 0.41839,-0.064 0.57709,0 0.1587,0.064 0.0288,0.11643 -0.28855,0.11643 -0.3174,0 -0.44724,-0.0524 -0.28854,-0.11643 z m 11.08018,0 c 0.1587,-0.064 0.418392,-0.064 0.577093,0 0.1587,0.064 0.02885,0.11643 -0.288547,0.11643 -0.317396,0 -0.447246,-0.0524 -0.288546,-0.11643 z"
         id="path863" />
      <path
         style="fill:#b9b9b9;fill-opacity:1;stroke-width:0.230837"
         d="m -117.90235,-42.209989 c 0.0111,-0.268914 0.0658,-0.323611 0.13947,-0.139465 0.0667,0.166634 0.0585,0.365734 -0.0182,0.442439 -0.0767,0.0767 -0.13126,-0.05964 -0.12124,-0.302974 z m -20.71781,-13.600155 c 9.2e-4,-0.888723 0.0427,-1.224005 0.0927,-0.745073 0.05,0.478934 0.0491,1.206071 -0.002,1.61586 -0.051,0.409791 -0.0919,0.01794 -0.0909,-0.870787 z m 3.46746,-2.192953 c 0,-1.079163 0.0398,-1.520639 0.0884,-0.981058 0.0486,0.539582 0.0486,1.422534 0,1.962116 -0.0486,0.539582 -0.0884,0.09811 -0.0884,-0.981058 z m 7.57342,0.230837 c 0,-0.317401 0.0524,-0.447247 0.11643,-0.288546 0.064,0.1587 0.064,0.418392 0,0.577093 -0.064,0.1587 -0.11643,0.02885 -0.11643,-0.288547 z m -7.60052,-4.155068 c 0,-0.444362 0.0475,-0.626146 0.10557,-0.403965 0.0581,0.222181 0.0581,0.585749 0,0.80793 -0.0581,0.222181 -0.10557,0.0404 -0.10557,-0.403965 z m 24.83357,-3.620244 c 0.16664,-0.06668 0.36573,-0.05848 0.44244,0.01821 0.0767,0.07671 -0.0596,0.131263 -0.30297,0.12124 -0.26892,-0.01108 -0.32361,-0.06578 -0.13947,-0.139462 z m -48.09712,-16.289458 -0.91248,-0.981058 0.98105,0.912487 c 0.91238,0.848604 1.08714,1.049628 0.91249,1.049628 -0.0377,0 -0.47919,-0.441476 -0.98106,-0.981057 z m 0.0109,-26.25772 c 0.4959,-0.50785 0.95357,-0.92335 1.01705,-0.92335 0.0635,0 -0.29031,0.4155 -0.78621,0.92335 -0.49589,0.50784 -0.95356,0.92334 -1.01704,0.92334 -0.0635,0 0.29031,-0.4155 0.7862,-0.92334 z m 105.712548,-0.0577 -0.912488,-0.98106 0.981058,0.91249 c 0.539582,0.50186 0.981058,0.94334 0.981058,0.98105 0,0.17465 -0.201024,-1.1e-4 -1.049628,-0.91248 z m -57.626288,-16.25858 c 0.16664,-0.0667 0.36573,-0.0585 0.44244,0.0182 0.0767,0.0767 -0.0596,0.13127 -0.30297,0.12124 -0.26892,-0.0111 -0.32361,-0.0658 -0.13947,-0.13946 z m 9.46433,0 c 0.16663,-0.0667 0.36573,-0.0585 0.44243,0.0182 0.0767,0.0767 -0.0596,0.13127 -0.30297,0.12124 -0.26891,-0.0111 -0.32361,-0.0658 -0.13946,-0.13946 z"
         id="path861" />
      <path
         style="fill:#a3a3a3;fill-opacity:1;stroke-width:0.230837"
         d="m -136.07909,-38.381941 c 0,-0.952203 0.0407,-1.341741 0.0905,-0.865639 0.0498,0.476101 0.0498,1.255177 0,1.731278 -0.0498,0.476102 -0.0905,0.08656 -0.0905,-0.865639 z M -148.8163,-57.77226 c 0,-0.317401 0.0524,-0.447247 0.11643,-0.288546 0.064,0.1587 0.064,0.418392 0,0.577093 -0.064,0.1587 -0.11643,0.02885 -0.11643,-0.288547 z m 16.63738,-2.770045 c 0,-0.444362 0.0475,-0.626146 0.10557,-0.403965 0.0581,0.22218 0.0581,0.585749 0,0.80793 -0.0581,0.22218 -0.10557,0.0404 -0.10557,-0.403965 z"
         id="path859" />
      <path
         style="fill:#8c8c8c;fill-opacity:1;stroke-width:0.230837"
         d="m -109.19204,-65.547572 c 0.16663,-0.06668 0.36573,-0.05848 0.44244,0.01821 0.0767,0.07671 -0.0596,0.131263 -0.30298,0.12124 -0.26891,-0.01108 -0.32361,-0.06578 -0.13946,-0.139462 z m 0,-58.863468 c 0.16663,-0.0667 0.36573,-0.0585 0.44244,0.0182 0.0767,0.0767 -0.0596,0.13127 -0.30298,0.12124 -0.26891,-0.0111 -0.32361,-0.0658 -0.13946,-0.13946 z m 7.15595,0 c 0.16663,-0.0667 0.36573,-0.0585 0.44244,0.0182 0.0767,0.0767 -0.0596,0.13127 -0.30298,0.12124 -0.26891,-0.0111 -0.32361,-0.0658 -0.13946,-0.13946 z"
         id="path857" />
      <path
         style="fill:#767676;fill-opacity:1;stroke-width:0.230837"
         d="m -125.22414,-41.382824 c 0,-1.206124 0.0389,-1.699538 0.0865,-1.096476 0.0476,0.603062 0.0476,1.589891 0,2.192953 -0.0476,0.603062 -0.0865,0.109647 -0.0865,-1.096477 z m 16.72461,-24.164748 c 0.16663,-0.06668 0.36573,-0.05848 0.44244,0.01821 0.0767,0.07671 -0.0596,0.131263 -0.30297,0.12124 -0.26892,-0.01108 -0.32362,-0.06578 -0.13947,-0.139462 z m 0,-58.863468 c 0.16663,-0.0667 0.36573,-0.0585 0.44244,0.0182 0.0767,0.0767 -0.0596,0.13127 -0.30297,0.12124 -0.26892,-0.0111 -0.32362,-0.0658 -0.13947,-0.13946 z m 5.77093,0 c 0.16663,-0.0667 0.36573,-0.0585 0.44244,0.0182 0.0767,0.0767 -0.0596,0.13127 -0.30298,0.12124 -0.26891,-0.0111 -0.32361,-0.0658 -0.13946,-0.13946 z"
         id="path855" />
      <path
         style="fill:#606060;fill-opacity:1;stroke-width:0.230837"
         d="m -141.36825,-44.037451 c 1.9e-4,-2.666168 0.0338,-3.725258 0.0747,-2.353534 0.0409,1.371724 0.0407,3.553135 -2.3e-4,4.84758 -0.0411,1.294444 -0.0745,0.172123 -0.0743,-2.494046 z m 1.61586,0 c 1.9e-4,-2.666168 0.0338,-3.725258 0.0747,-2.353534 0.0409,1.371724 0.0407,3.553135 -2.3e-4,4.84758 -0.0411,1.294444 -0.0745,0.172123 -0.0743,-2.494046 z m 11.75692,2.770046 c -6.9e-4,-1.142644 0.0383,-1.639193 0.0867,-1.103441 0.0484,0.53575 0.049,1.470641 0.001,2.077534 -0.0477,0.606892 -0.0873,0.168551 -0.088,-0.974093 z m -0.004,-5.886347 c 0,-0.952203 0.0408,-1.341741 0.0905,-0.865639 0.0498,0.476102 0.0498,1.255177 0,1.731278 -0.0498,0.476102 -0.0905,0.08656 -0.0905,-0.865639 z m -2.75474,-10.618508 c 0,-1.967886 0.0354,-2.772931 0.0787,-1.788987 0.0433,0.983943 0.0433,2.594032 0,3.577975 -0.0433,0.983943 -0.0787,0.178899 -0.0787,-1.788988 z m 1.61586,0 c 0,-1.967886 0.0354,-2.772931 0.0787,-1.788987 0.0433,0.983943 0.0433,2.594032 0,3.577975 -0.0433,0.983943 -0.0787,0.178899 -0.0787,-1.788988 z m -1.65056,-5.193835 c 0.003,-0.507842 0.0498,-0.688414 0.10505,-0.401274 0.0552,0.287141 0.0531,0.702648 -0.005,0.923349 -0.0578,0.220701 -0.10296,-0.01424 -0.10039,-0.522075 z m 1.61586,0 c 0.003,-0.507842 0.0498,-0.688414 0.10505,-0.401274 0.0552,0.287141 0.0531,0.702648 -0.005,0.923349 -0.0578,0.220701 -0.10296,-0.01424 -0.10039,-0.522075 z m 21.36636,-2.581477 c 0.16663,-0.06668 0.36573,-0.05848 0.44244,0.01821 0.0767,0.07671 -0.0596,0.131263 -0.30297,0.12124 -0.26892,-0.01108 -0.32362,-0.06578 -0.13947,-0.139462 z m 0,-58.863468 c 0.16663,-0.0667 0.36573,-0.0585 0.44244,0.0182 0.0767,0.0767 -0.0596,0.13127 -0.30297,0.12124 -0.26892,-0.0111 -0.32362,-0.0658 -0.13947,-0.13946 z m 4.38591,0 c 0.16663,-0.0667 0.36573,-0.0585 0.44243,0.0182 0.0767,0.0767 -0.0596,0.13127 -0.30297,0.12124 -0.26891,-0.0111 -0.32361,-0.0658 -0.13946,-0.13946 z"
         id="path853" />
      <path
         style="fill:#494949;fill-opacity:1;stroke-width:0.230837"
         d="m -129.59555,-44.037451 c 1.8e-4,-2.666168 0.0338,-3.725258 0.0747,-2.353534 0.0409,1.371724 0.0407,3.553135 -2.3e-4,4.84758 -0.0411,1.294444 -0.0745,0.172123 -0.0743,-2.494046 z m 1.51815,-1.360325 c 0,-0.0499 0.16121,-0.152583 0.35824,-0.228194 0.20543,-0.07883 0.29809,-0.04013 0.21721,0.09072 -0.13556,0.219344 -0.57545,0.32443 -0.57545,0.137473 z"
         id="path851" />
      <path
         style="fill:#333333;fill-opacity:1;stroke-width:0.230837"
         d="m -105.45537,-35.811357 v -29.515775 l -1.07098,-0.146796 c -0.58904,-0.08074 -2.01735,-0.147865 -3.17401,-0.149176 -4.0359,-0.0046 -11.30916,-0.784013 -16.41493,-1.759113 -11.58614,-2.212726 -21.39772,-6.091086 -28.28772,-11.181679 -4.11571,-3.040843 -7.82285,-7.570627 -9.11971,-11.143441 -2.22708,-6.135528 -0.47355,-12.349013 5.09023,-18.036823 4.62112,-4.72413 11.15916,-8.53956 19.50607,-11.38322 10.36381,-3.53079 20.96334,-5.16709 33.47105,-5.16709 12.507723,0 23.107247,1.6363 33.471061,5.16709 12.910446,4.39839 22.046986,11.5574 24.606116,19.280312 0.368982,1.113512 0.748785,2.059192 0.844005,2.101511 0.09522,0.04232 0.173128,20.635879 0.173128,45.763461 V -6.29558 h -29.547152 -29.547158 z m -32.31719,-5.686885 v -4.732161 h 0.80793 c 0.71904,0 0.80793,0.06695 0.80793,0.608569 v 0.608573 l 0.58274,-0.582742 c 0.68714,-0.687142 1.33687,-0.849998 2.34693,-0.588263 2.22093,0.5755 2.64619,5.202425 0.60131,6.542287 -0.8095,0.530403 -2.0659,0.482703 -2.86597,-0.108812 l -0.66501,-0.491667 v 1.738187 1.73819 h -0.80793 -0.80793 z m 4.40202,0.673089 c 0.42773,-0.515386 0.53362,-2.850694 0.16135,-3.558553 -0.41974,-0.798115 -1.74767,-0.919205 -2.38222,-0.217227 -0.62198,0.688068 -0.62342,2.977877 -0.002,3.6642 0.52052,0.575158 1.78574,0.638659 2.22318,0.11158 z m 13.02618,1.582813 c -0.82224,-0.194196 -1.50044,-1.014846 -1.50044,-1.815587 0,-1.467155 0.45021,-1.862727 2.73004,-2.398728 1.29286,-0.303957 1.66655,-0.704143 1.19175,-1.276246 -0.36926,-0.444927 -1.70497,-0.443036 -2.07509,0.0029 -0.38916,0.468902 -1.61586,0.460936 -1.61586,-0.0105 0,-0.61911 1.07857,-1.48745 1.89391,-1.52476 3.20046,-0.146452 3.55591,0.296256 3.68856,4.59407 l 0.073,2.366304 -0.7233,-2.24e-4 c -0.53867,-1.68e-4 -0.7554,-0.122967 -0.84905,-0.48108 l -0.12574,-0.480855 -0.6514,0.461377 c -0.76279,0.540274 -1.39427,0.714944 -2.03642,0.563281 z m 2.29528,-1.730173 c 0.19764,-0.282168 0.35935,-0.762891 0.35935,-1.068268 0,-0.523638 -0.0558,-0.546415 -0.98106,-0.400235 -1.28827,0.203534 -1.93463,0.816418 -1.5732,1.491744 0.37007,0.691482 1.70419,0.677357 2.19491,-0.02324 z m -33.57371,1.530365 c 0,-0.0906 0.80258,-2.231168 1.78352,-4.756817 l 1.78352,-4.592087 0.89493,0.06843 0.89494,0.06843 1.71005,4.270487 c 2.2518,5.623365 2.13639,5.078417 1.0756,5.078417 -0.83856,0 -0.9123,-0.05795 -1.24833,-0.981058 l -0.35713,-0.981058 -2.06103,-0.06567 -2.06103,-0.06567 -0.34188,0.989015 c -0.31235,0.90358 -0.41666,0.995204 -1.20752,1.06066 -0.4761,0.0394 -0.86564,-0.0025 -0.86564,-0.09309 z m 5.71163,-3.845082 c -0.0598,-0.1587 -0.3445,-0.937776 -0.63272,-1.731278 -0.28821,-0.793503 -0.58802,-1.442229 -0.66623,-1.441613 -0.0782,6.93e-4 -0.41867,0.779689 -0.75659,1.731279 l -0.61439,1.730159 h 1.38931 c 1.01552,0 1.36007,-0.07763 1.28062,-0.288547 z m 4.67604,-0.750221 v -4.732161 h 0.69251 0.69251 v 4.732161 4.732162 h -0.69251 -0.69251 z m 11.77269,0 v -4.732161 h 0.69251 0.69252 v 1.731279 c 0,0.952203 0.0712,1.731278 0.15825,1.731278 0.087,0 0.39447,-0.221917 0.68318,-0.493151 0.76458,-0.718287 2.24957,-0.675843 3.01149,0.08608 0.54059,0.540599 0.58762,0.773627 0.70511,3.494036 l 0.12588,2.914806 h -0.84152 -0.84151 l -0.023,-2.250662 c -0.0312,-3.055453 -0.14147,-3.387847 -1.15209,-3.473755 -1.34856,-0.114636 -1.65164,0.448209 -1.77861,3.303071 l -0.10768,2.421346 h -0.66225 -0.66226 z m -16.55678,-10.284724 c -1.6991,-0.359912 -2.6027,-1.576412 -2.6027,-3.503981 0,-2.025702 1.3802,-3.447134 3.34714,-3.447134 1.97297,0 3.34714,1.421546 3.34714,3.462543 0,2.414554 -1.82322,3.969069 -4.09158,3.488572 z m 1.99729,-1.749937 c 0.33087,-0.420627 0.47843,-0.94501 0.47843,-1.700148 0,-1.445705 -0.647,-2.308371 -1.73128,-2.308371 -1.08428,0 -1.73128,0.862666 -1.73128,2.308371 0,1.445705 0.647,2.308372 1.73128,2.308372 0.56168,0 0.90585,-0.167087 1.25285,-0.608224 z m 10.23333,1.806093 c -0.9449,-0.137457 -1.21393,-0.874737 -1.21393,-3.326767 0,-2.103116 -0.0315,-2.257008 -0.46167,-2.257008 -0.35908,0 -0.46168,-0.153892 -0.46168,-0.692511 0,-0.531069 0.10422,-0.692512 0.44705,-0.692512 0.32863,0 0.46621,-0.186468 0.51939,-0.70391 0.0514,-0.5 0.28965,-0.840912 0.82255,-1.176854 l 0.75022,-0.472943 v 1.176853 c 0,1.101419 0.037,1.176854 0.5771,1.176854 0.48732,0 0.57709,0.107725 0.57709,0.692512 0,0.584786 -0.0898,0.692511 -0.57709,0.692511 -0.57507,0 -0.5771,0.0077 -0.5771,2.192953 0,2.159112 0.009,2.192953 0.5524,2.192953 0.49076,0 0.83263,0.376105 0.83263,0.916028 0,0.221057 -1.05787,0.387904 -1.78696,0.281841 z m 8.76032,-0.05927 c -2.61363,-0.55325 -3.24195,-4.828857 -0.95565,-6.503045 1.19938,-0.878268 3.6413,-0.438163 4.26542,0.768755 0.45407,0.878061 0.44286,0.902298 -0.41703,0.902298 -0.5024,0 -0.8482,-0.153398 -1.04072,-0.461674 -0.35396,-0.566774 -1.7035,-0.630654 -2.14272,-0.101425 -0.48552,0.585008 -0.55893,2.683881 -0.12333,3.526224 0.50303,0.972759 1.71628,1.041685 2.37674,0.135021 0.33789,-0.463851 0.59476,-0.578501 1.16365,-0.519383 l 0.73005,0.07586 -0.37008,0.760087 c -0.55999,1.150128 -1.99413,1.733144 -3.48633,1.417278 z m 7.11135,0.0096 c -1.96951,-0.462009 -2.86677,-3.345387 -1.72694,-5.549574 0.46479,-0.898806 1.39196,-1.408042 2.56362,-1.408042 1.72847,0 2.73624,0.968376 2.99842,2.881224 l 0.14823,1.081481 h -2.3553 c -2.33554,0 -2.35397,0.0044 -2.19703,0.519383 0.0871,0.285661 0.31791,0.701168 0.51301,0.923349 0.44407,0.505704 1.85917,0.545611 2.0464,0.05771 0.15348,-0.399967 1.69933,-0.488807 1.69933,-0.09767 0,0.426922 -1.32651,1.598104 -1.81006,1.598104 -0.2533,0 -0.59889,0.04111 -0.76797,0.09135 -0.16909,0.05024 -0.66935,0.0064 -1.11171,-0.09732 z m 2.30472,-4.534895 c 0,-1.105287 -2.02363,-1.731763 -2.53109,-0.783572 -0.52039,0.972362 -0.32731,1.169361 1.14607,1.169361 1.14032,0 1.38502,-0.06816 1.38502,-0.385789 z m -38.28654,3.906055 c -0.4789,-1.194852 -3.03236,-8.483006 -3.03283,-8.656392 -2.6e-4,-0.09522 0.38919,-0.173128 0.86544,-0.173128 h 0.86591 l 1.12798,3.353152 c 0.62038,1.844234 1.20868,3.403031 1.30732,3.463995 0.0986,0.06096 0.68967,-1.421985 1.31338,-3.295443 l 1.13404,-3.406286 0.8478,-0.07164 c 0.46628,-0.0394 0.84779,-0.0014 0.84779,0.08454 0,0.0859 -0.63729,1.935983 -1.41621,4.111293 -0.77892,2.175312 -1.51622,4.240771 -1.63844,4.589912 -0.18953,0.541394 -0.35065,0.634802 -1.09499,0.634802 -0.73654,0 -0.91248,-0.09909 -1.12719,-0.634802 z m 13.58697,-2.827755 v -3.462557 h 0.80793 c 0.6655,0 0.80793,0.08501 0.80793,0.482194 0,0.469324 0.018,0.467013 0.67594,-0.08657 0.85923,-0.722996 1.9792,-0.625364 1.76994,0.154293 -0.0722,0.26887 -0.13263,0.61243 -0.13436,0.763464 -0.002,0.151037 -0.3903,0.306852 -0.86348,0.346256 -1.16731,0.09721 -1.44037,0.710685 -1.44464,3.245655 l -0.003,2.019825 h -0.80793 -0.80793 z m 9.69516,0 v -3.462557 h 0.69251 0.69251 v 3.462557 3.462557 h -0.69251 -0.69251 z m 0,-5.193835 c 0,-0.743808 0.055,-0.80793 0.69251,-0.80793 0.63755,0 0.69251,0.06412 0.69251,0.80793 0,0.743808 -0.055,0.80793 -0.69251,0.80793 -0.63755,0 -0.69251,-0.06412 -0.69251,-0.80793 z"
         id="path849" />
    </g>
    <path
       sodipodi:type="spiral"
       style="fill:#ffc900;fill-opacity:1;fill-rule:evenodd;stroke:#000000;stroke-width:0.189562"
       id="path873"
       sodipodi:cx="105.55159"
       sodipodi:cy="30.126127"
       sodipodi:expansion="1"
       sodipodi:revolution="10.5768"
       sodipodi:radius="41.435974"
       sodipodi:argument="-65.699715"
       sodipodi:t0="0.035557199"
       d="m 106.84112,29.413475 c 0.92433,0.725685 0.67125,2.132443 -0.10314,2.859392 -1.22765,1.152434 -3.18555,0.744353 -4.19034,-0.486618 -1.39493,-1.70892 -0.82171,-4.247732 0.87009,-5.521286 2.18348,-1.64368 5.31385,-0.901224 6.85224,1.253572 1.89559,2.655117 0.98195,6.382037 -1.63705,8.183182 -3.12524,2.149293 -7.45148,1.063419 -9.514132,-2.020527 -2.404112,-3.594467 -1.145364,-8.521715 2.404002,-10.845077 4.06314,-2.659668 9.59251,-1.227637 12.17603,2.787481 2.91573,4.531431 1.31014,10.663699 -3.17096,13.506973 -4.99946,3.172173 -11.735183,1.392821 -14.837922,-3.554436 -3.428887,-5.467294 -1.475629,-12.806888 3.937914,-16.168868 5.934978,-3.685812 13.878768,-1.558537 17.499818,4.321391 3.9429,6.402558 1.64152,14.950784 -4.70487,18.830763 -6.87005,4.200122 -16.022915,1.724577 -20.161712,-5.088346 -4.457451,-7.337462 -1.807681,-17.095135 5.471823,-21.492658 7.804819,-4.714866 18.167429,-1.890828 22.823609,5.8553 4.97235,8.272132 1.97401,19.239792 -6.23878,24.154554 -8.7394,5.229903 -20.312207,2.057224 -25.485502,-6.622255 -5.487504,-9.206641 -2.140464,-21.384666 7.005732,-26.81645 9.67385,-5.7451478 22.45717,-2.223725 28.1474,7.389211 6.00283,10.141034 2.307,23.5297 -7.77269,29.478344 C 105.60448,55.677665 91.610415,51.80742 85.403388,41.260952 78.885095,30.185608 82.929772,15.586097 93.94303,9.1207124 105.4855,2.3446491 120.6905,6.563772 127.41422,18.043832 c 7.03385,12.009588 2.64027,27.820103 -9.3066,34.802135 C 105.63093,60.137636 89.214864,55.56959 81.974538,43.155893 74.425038,30.212111 79.167559,13.190467 92.048089,5.6918623 105.45895,-2.1154841 123.0862,2.8015196 130.84307,16.148891 c 8.0652,13.877936 2.97371,32.110808 -10.84051,40.125926 -14.345,8.323081 -33.183516,3.057092 -41.456873,-11.223984 C 69.964721,30.238776 75.405212,10.794595 90.153149,2.2630122 105.43226,-6.5758504 125.48212,-0.96085209 134.27192,14.253951 143.36869,30.000104 137.57918,50.655659 121.8975,59.703667 105.68431,69.05835 84.423045,63.094324 75.116837,46.945774 65.504232,30.265548 71.642777,8.3985615 88.258208,-1.165838 105.40546,-11.036374 127.87818,-4.7233046 137.70077,12.35901 147.82924,29.973291 141.34164,53.051755 123.79244,63.132517 105.71114,73.518933 82.026922,66.856808 71.687987,48.840714 61.043622,30.292394 67.88028,6.0024133 86.363268,-4.5946881 105.3786,-15.497007 130.27436,-8.4858144 141.12962,10.46407 c 8.7814,15.329573 6.46964,35.08779 -5.43781,48.09632" />
    <path
       style="fill:#868686;fill-opacity:1"
       d="M 256.57143,385.78367 V 257.36312 l -2.75,-0.51983 c -1.5125,-0.28591 -9.725,-0.79679 -18.25,-1.13529 -42.52555,-1.68853 -85.57044,-9.31352 -121.5112,-21.52456 C 76.357562,221.37379 49.443963,206.11009 29.513155,186.23367 16.835809,173.59092 8.4854057,161.43514 4.1898621,149.37026 1.3954755,141.52168 1.1044268,139.57225 1.1044268,128.70421 c 0,-10.87589 0.289929,-12.81441 3.0950382,-20.69391 C 8.9076846,94.784988 15.305826,85.34268 28.507595,72.136624 42.023667,58.616163 54.152297,49.875573 72.78002,40.231363 125.08157,13.153058 192.85217,-0.23657473 268.57143,1.5482891 c 38.53006,0.9082353 69.05992,4.7428817 100.17449,12.5822299 51.06463,12.865786 89.32145,31.869496 114.89643,57.073695 12.78302,12.59769 18.95155,21.917375 25.64639,38.747666 l 2.68597,6.75233 0.34204,198.75 0.34205,198.75 H 384.61511 256.57143 Z"
       id="path867"
       transform="scale(0.26458333)" />
    <circle
       id="path2825"
       style="fill:#333333;stroke:#000000;stroke-width:0.264583"
       cx="40.216667"
       cy="53.974998"
       r="0.034967165" />
    <ellipse
       style="fill:#ffc900;fill-opacity:1;stroke-width:0.378941"
       id="path2829"
       cx="34.924999"
       cy="33.734375"
       rx="29.104166"
       ry="27.384377" />
    <rect
       ry="11.329929"
       y="20.56415"
       x="32.483498"
       height="22.659859"
       width="40.967941"
       id="rect1461"
       style="fill:#868686;fill-opacity:1;stroke-width:0.274304" />
    <text
       id="text1465"
       y="81.796577"
       x="38.528477"
       style="font-weight:bold;font-size:1.05833px;line-height:1.25;font-family:Tahoma;-inkscape-font-specification:'Tahoma Bold';fill:#333333;fill-opacity:1;stroke-width:0.264583"
       xml:space="preserve"><tspan
         style="font-size:1.05833px;fill:#333333;fill-opacity:1;stroke-width:0.264583"
         y="81.796577"
         x="38.528477"
         id="tspan1463"
         sodipodi:role="line">A Game By Fun Noober</tspan></text>
    <ellipse
       ry="12.001505"
       rx="12.755221"
       cy="33.839516"
       cx="12.817115"
       id="path2829-1"
       style="fill:#ffc900;fill-opacity:1;stroke-width:0.166076" />
    <text
       id="text1469"
       y="34.272667"
       x="11.318946"
       style="font-weight:bold;font-size:5.29167px;line-height:1.25;font-family:Tahoma;-inkscape-font-specification:'Tahoma Bold';fill:#868686;fill-opacity:1;stroke-width:0.264583"
       xml:space="preserve"><tspan
         style="font-size:5.29167px;fill:#868686;fill-opacity:1;stroke-width:0.264583"
         y="34.272667"
         x="11.318946"
         id="tspan1467"
         sodipodi:role="line">V.O.A.L</tspan></text>
  </g>
</svg>
